Coordinates
version=1
nRows=16
nColumns=33
inDegrees=yes

Units are S.I. units (second, meters, Newtons, ...)
Angles are in degrees.

endheader
time	ground_thorax_rot_x	ground_thorax_rot_y	ground_thorax_rot_z	ground_thorax_tx	ground_thorax_ty	ground_thorax_tz	clav_prot_r	clav_elev_r	scapula_abduction_r	scapula_elevation_r	scapula_upward_rot_r	scapula_winging_r	shoulder_elv_r	plane_of_elev_r	axial_rot_r	elbow_flexion_r	pro_sup_r	wrist_flex_r	wrist_dev_r	clav_prot_l	clav_elev_l	scapula_abduction_l	scapula_elevation_l	scapula_upward_rot_l	scapula_winging_l	shoulder_elv_l	plane_of_elev_l	axial_rot_l	elbow_flexion_l	pro_sup_l	wrist_flex_l	wrist_dev_l
      2.87000000	     35.92744893	      9.81161031	     12.67810780	    -79.79560231	    767.69059615	      9.42512767	     11.02359647	     36.69627753	     45.00000000	     34.01451546	     -7.04327570	  -1892.37326048	  -4802.56928664	    151.72633141	   -117.65748375	   2529.42614371	     28.70020249	     17.34240114	     10.93728254	      5.40701575	    -45.00000000	    -45.00000000	     45.00000000	    -23.57165908	   1526.49825515	  -3341.75566801	    138.16101929	    158.59235922	   1447.08857019	     28.11056404	      8.00120604	    -18.58002210
      2.88000000	     35.83116915	      9.96532184	     12.88843710	    -80.15704164	    767.68720277	      9.32704536	     10.58715891	     36.23424310	     45.00000000	     33.85805822	     -6.84823456	  -1892.68932784	  -4802.67468747	    151.72451981	   -117.25086015	   2529.32118689	     28.89049134	     17.41834158	     10.83185421	      4.92234800	    -45.00000000	    -45.00000000	     45.00000000	    -23.73894174	   1526.83346573	  -3341.76763790	    137.98767599	    158.42713161	   1447.10274052	     28.35281540	      8.19522868	    -18.09771520
      2.89000000	     35.95570994	      9.91690367	     12.74850112	    -80.55076719	    767.67921956	      9.22677636	     10.67276418	     36.51851178	     45.00000000	     33.96204824	     -6.76977271	  -1892.64578646	  -4802.58317879	    151.72205056	   -117.07235536	   2529.49561356	     28.98735554	     17.35188245	     10.82348536	      5.19364114	    -45.00000000	    -45.00000000	     45.00000000	    -23.58435807	   1526.66224676	  -3341.74556586	    138.20613383	    158.35407679	   1447.11858970	     28.43013465	      7.97603688	    -18.56704847
      2.90000000	     35.97786967	     10.00729465	     12.82353271	    -81.00416536	    767.67736009	      9.13610092	     10.60998947	     36.40673692	     45.00000000	     33.97473059	     -6.64636679	  -1892.79423912	  -4802.68634215	    151.71655680	   -117.12936234	   2529.36352231	     29.02434336	     17.43328809	     10.77324468	      5.02770455	    -45.00000000	    -45.00000000	     45.00000000	    -23.66060696	   1526.95636578	  -3341.78940147	    137.98896026	    158.31319277	   1447.14482853	     28.56793654	      8.14553632	    -18.14011758
      2.91000000	     36.02026995	      9.98838398	     12.74317215	    -81.48719363	    767.67489477	      9.04574758	     10.60806241	     36.55110307	     45.00000000	     34.02314065	     -6.84627110	  -1892.68040435	  -4802.49693253	    151.69576462	   -116.99174322	   2529.55734975	     29.05044662	     17.35050951	     10.81346748	      5.10487760	    -45.00000000	    -45.00000000	     45.00000000	    -23.61468263	   1526.73793133	  -3341.71037214	    138.26852652	    158.31119025	   1447.17041470	     28.59154941	      7.96634732	    -18.59027787
      2.92000000	     36.02554607	     10.06590214	     12.77276934	    -81.98897024	    767.66881624	      8.94543397	     10.66109967	     36.51607022	     45.00000000	     34.05867316	     -6.74359512	  -1892.86879824	  -4802.67490679	    151.71618900	   -117.12540525	   2529.39714283	     29.02832962	     17.44267719	     10.75369715	      5.10543822	    -45.00000000	    -45.00000000	     45.00000000	    -23.71464375	   1527.09485670	  -3341.79539902	    137.93471495	    158.27261910	   1447.15850811	     28.69253050	      8.12247210	    -18.20796433
      2.93000000	     36.08229732	     10.10654664	     12.77635924	    -82.46215745	    767.64805386	      8.82073773	     10.60710215	     36.58961199	     45.00000000	     34.08943475	     -6.98392149	  -1892.71252253	  -4802.41954709	    151.69464692	   -117.03331767	   2529.61964613	     29.02362223	     17.37048702	     10.82588298	      5.08685796	    -45.00000000	    -45.00000000	     45.00000000	    -23.71441290	   1526.79984169	  -3341.67997681	    138.36134894	    158.31476988	   1447.23683653	     28.69094137	      7.96649431	    -18.62451047
      2.94000000	     36.06700058	     10.16466218	     12.75382411	    -82.92580466	    767.62180102	      8.67432412	     10.68230651	     36.59375475	     45.00000000	     34.11506841	     -6.97018247	  -1892.82615227	  -4802.56417403	    151.70646234	   -117.19976177	   2529.44489697	     29.00133488	     17.47669811	     10.79248562	      5.17079913	    -45.00000000	    -45.00000000	     45.00000000	    -23.86106296	   1527.14548238	  -3341.68342746	    137.97751410	    158.27857055	   1447.19150371	     28.76963180	      8.09533409	    -18.31800828
      2.95000000	     36.10683371	     10.32074617	     12.78971403	    -83.35468283	    767.58891664	      8.50570195	     10.67348485	     36.60211977	     45.00000000	     34.20548058	     -7.04129404	  -1892.89658318	  -4802.55791208	    151.73703750	   -117.33452313	   2529.46888258	     29.00130086	     17.39566039	     10.80914217	      5.14939679	    -45.00000000	    -45.00000000	     45.00000000	    -23.86174218	   1527.03017814	  -3341.68896907	    138.23237426	    158.35246699	   1447.21649727	     28.76958179	      7.99762888	    -18.56670486
      2.96000000	     36.15090977	     10.33312615	     12.71656726	    -83.78875633	    767.56392495	      8.32482530	     10.69956882	     36.66936832	     45.00000000	     34.23302520	     -7.02205175	  -1892.88465644	  -4802.55048691	    151.67861146	   -117.49338681	   2529.39734744	     29.00590674	     17.51971267	     10.80455448	      5.22051420	    -45.00000000	    -45.00000000	     45.00000000	    -23.96575381	   1527.31104739	  -3341.62891088	    137.94164769	    158.34257697	   1447.24989554	     28.80721339	      8.07829783	    -18.38738329
      2.97000000	     36.20096436	     10.47414368	     12.74611693	    -84.24253934	    767.55625330	      8.14261442	     10.68899251	     36.69006193	     45.00000000	     34.32153034	     -7.08726543	  -1892.95261177	  -4802.54018802	    151.72294735	   -117.63237672	   2529.41619721	     29.03391166	     17.43382355	     10.82931466	      5.16932434	    -45.00000000	    -45.00000000	     45.00000000	    -23.99259643	   1527.12179617	  -3341.63954887	    138.28348790	    158.43434189	   1447.28483001	     28.79055754	      8.00672798	    -18.60461386
      2.98000000	     36.24554690	     10.44034885	     12.61985420	    -84.75439135	    767.58087887	      7.97190610	     10.71220387	     36.81933347	     45.00000000	     34.35778544	     -7.07112823	  -1892.92156658	  -4802.51892460	    151.63567558	   -117.74132310	   2529.33754369	     29.04833639	     17.55240422	     10.80379362	      5.26367776	    -45.00000000	    -45.00000000	     45.00000000	    -24.07569291	   1527.49780716	  -3341.58190741	    137.86567838	    158.43234439	   1447.26735703	     28.79665258	      8.07207719	    -18.43014074
      2.99000000	     36.30274942	     10.63384630	     12.65168742	    -85.31146389	    767.63374330	      7.80686960	     10.70548581	     36.83390617	     45.00000000	     34.47020863	     -7.15578868	  -1892.99799705	  -4802.47619766	    151.71355647	   -117.82443093	   2529.38311461	     29.06367273	     17.45420398	     10.83373481	      5.17368028	    -45.00000000	    -45.00000000	     45.00000000	    -24.08672217	   1527.18052527	  -3341.58354730	    138.32133242	    158.53343113	   1447.34711095	     28.74434450	      8.02195795	    -18.64331263
      3.00000000	     36.32544271	     10.57187098	     12.51381921	    -85.90154692	    767.71139600	      7.64251512	     10.72974103	     36.98750946	     45.00000000	     34.50026854	     -7.14081624	  -1892.97879142	  -4802.46533380	    151.60375459	   -117.91112186	   2529.30526554	     29.04456286	     17.57303325	     10.78354553	      5.30996875	    -45.00000000	    -45.00000000	     45.00000000	    -24.18107711	   1527.69969392	  -3341.54881926	    137.76552621	    158.53302647	   1447.30936441	     28.69965330	      8.06196572	    -18.47434962
      3.01000000	     36.39534992	     10.77804666	     12.55938123	    -86.52409319	    767.81313429	      7.47609325	     10.72575275	     36.99184020	     45.00000000	     34.64704078	     -7.24186360	  -1893.05989287	  -4802.40034463	    151.70338757	   -117.97897306	   2529.38718751	     29.02227981	     17.48194287	     10.82702471	      5.19338467	    -45.00000000	    -45.00000000	     45.00000000	    -24.20857928	   1527.27281229	  -3341.51819027	    138.35860641	    158.62987600	   1447.43877805	     28.59963262	      8.03838057	    -18.68533153
      3.02000000	     36.42048223	     10.68222500	     12.38395220	    -87.17704400	    767.93904874	      7.30769880	     10.74960475	     37.18742954	     45.00000000	     34.67708887	     -7.21326379	  -1893.05872845	  -4802.41305357	    151.57018235	   -118.08438022	   2529.29240376	     28.96397719	     17.59718933	     10.75457219	      5.36901925	    -45.00000000	    -45.00000000	     45.00000000	    -24.29637452	   1527.93993512	  -3341.51065858	    137.64094530	    158.63208540	   1447.35954015	     28.49686312	      8.04698252	    -18.51246254
